<svg width="21" height="14" viewBox="0 0 21 14" fill="none" xmlns="http://www.w3.org/2000/svg">
<path d="M2.02222 0C0.913391 0 0 0.948521 0 2.1V11.9C0 13.0515 0.913391 14 2.02222 14H18.2C19.3088 14 20.2222 13.0515 20.2222 11.9V2.1C20.2222 0.948521 19.3088 0 18.2 0H2.02222ZM2.30133 1.4H17.9196L11.9161 7.6248C10.9099 8.66809 9.30009 8.66797 8.29427 7.62344L2.30133 1.4ZM18.8741 2.38848V11.6115L14.4268 7L18.8741 2.38848ZM1.34815 2.38984L5.78756 7L1.34815 11.6102V2.38984ZM13.4736 7.98848L17.9209 12.6H2.30133L6.74074 7.98984L7.34109 8.61328C8.8617 10.1924 11.3464 10.1935 12.868 8.61602L13.4736 7.98848Z" fill="#E64E27"/>
</svg>
