<svg width="30" height="30" viewBox="0 0 30 30" fill="none" xmlns="http://www.w3.org/2000/svg">
<path fill-rule="evenodd" clip-rule="evenodd" d="M28.5 15C28.5 21.7763 23.5074 27.3866 17 28.353V29.8679C24.3387 28.8901 30 22.6062 30 15C30 6.71575 23.2843 0 15 0C6.71573 0 0 6.71575 0 15C0 22.6062 5.66128 28.8901 13 29.8679V29H13.0978V17.75H9.75V15.75H13.0978V10.5C13.0978 8.60562 14.5774 7.75 15.6957 7.75L19.25 7.75053V9.25H17.6087C17.1863 9.25 16.6313 9.4184 16.1807 9.87063C15.7145 10.3385 15.4239 11.0438 15.4239 12V15.75H19.1405L18.8673 17.75H15.4239V26.5H16.9239V19.25H20.1762L20.8595 14.25L16.9239 14.2493V12C16.9239 11.3562 17.1116 11.0615 17.2432 10.9294C17.3905 10.7816 17.5529 10.75 17.6087 10.75H20.75V6.25H15.6957C13.9444 6.25 11.5978 7.59438 11.5978 10.5V14.25H8.25V19.25H11.5978V28.0678C5.78898 26.5597 1.5 21.2807 1.5 15C1.5 7.54418 7.54416 1.5 15 1.5C22.4558 1.5 28.5 7.54418 28.5 15Z" fill="#666666"/>
</svg>
