<svg width="39" height="27" viewBox="0 0 39 27" fill="none" xmlns="http://www.w3.org/2000/svg">
<path fill-rule="evenodd" clip-rule="evenodd" d="M4 1.75C3.30964 1.75 2.75 2.30964 2.75 3V5.87833C2.75 6.31379 2.97662 6.71786 3.34819 6.94493L19.3577 16.7285C19.7547 16.9711 20.2536 16.9732 20.6526 16.7338L36.75 7.07536V3C36.75 2.30964 36.1904 1.75 35.5 1.75H4ZM36.75 8.82464V23.5C36.75 24.1904 36.1904 24.75 35.5 24.75H3.5C2.80964 24.75 2.25 24.1904 2.25 23.5V11.5H0.75V23.5C0.75 25.0188 1.98122 26.25 3.5 26.25H35.5C37.0188 26.25 38.25 25.0188 38.25 23.5V3C38.25 1.48122 37.0188 0.25 35.5 0.25H4C2.48122 0.25 1.25 1.48122 1.25 3V5.87833C1.25 6.83634 1.74856 7.7253 2.56601 8.22486L18.5755 18.0084C19.449 18.5422 20.5466 18.5467 21.4244 18.02L36.75 8.82464Z" fill="#666666"/>
</svg>
