<svg width="16" height="16" viewBox="0 0 16 16" fill="none" xmlns="http://www.w3.org/2000/svg">
<path fill-rule="evenodd" clip-rule="evenodd" d="M10.264 0V1.40881H13.6003L7.73674 7.2724L8.73292 8.26857L14.5912 2.4103V5.73583H16V1.50943C16 0.675797 15.3242 0 14.4906 0H10.264ZM7.24512 1.40881V0H1.50943C0.675797 0 0 0.675796 0 1.50943V14.4906C0 15.3242 0.675796 16 1.50943 16H14.4906C15.3242 16 16 15.3242 16 14.4906V8.7547H14.5912V14.4906C14.5912 14.5461 14.5461 14.5912 14.4906 14.5912H1.50943C1.45386 14.5912 1.40881 14.5461 1.40881 14.4906V1.50943C1.40881 1.45386 1.45386 1.40881 1.50943 1.40881H7.24512Z" fill="#636363"/>
</svg>
